<mxfile host="app.diagrams.net" modified="2022-01-20T20:48:58.700Z" agent="5.0 (Windows NT 10.0; Win64; x64) AppleWebKit/537.36 (KHTML, like Gecko) Chrome/97.0.4692.71 Safari/537.36 Edg/97.0.1072.62" etag="SouYt_8pOmCstALhNDmc" version="16.4.3" type="github">
  <diagram id="PgW4nPpEC8x0lyethXMX" name="Page-1">
    <mxGraphModel dx="5852" dy="3416" grid="1" gridSize="10" guides="1" tooltips="1" connect="1" arrows="1" fold="1" page="1" pageScale="1" pageWidth="850" pageHeight="1100" math="0" shadow="0">
      <root>
        <mxCell id="0" />
        <mxCell id="1" parent="0" />
        <mxCell id="HXhFRCqjD4kQxeXYWOiK-1" value="Companies" style="rounded=0;whiteSpace=wrap;html=1;" parent="1" vertex="1">
          <mxGeometry x="-605" y="635" width="90" height="30" as="geometry" />
        </mxCell>
        <mxCell id="HXhFRCqjD4kQxeXYWOiK-2" value="Vaccine lots" style="rounded=0;whiteSpace=wrap;html=1;" parent="1" vertex="1">
          <mxGeometry x="-220" y="290" width="90" height="40" as="geometry" />
        </mxCell>
        <mxCell id="HXhFRCqjD4kQxeXYWOiK-3" value="Vaccination Sites" style="rounded=0;whiteSpace=wrap;html=1;" parent="1" vertex="1">
          <mxGeometry x="400" y="250" width="160" height="90" as="geometry" />
        </mxCell>
        <mxCell id="HXhFRCqjD4kQxeXYWOiK-4" value="Patients" style="rounded=0;whiteSpace=wrap;html=1;" parent="1" vertex="1">
          <mxGeometry x="330" y="735" width="80" height="30" as="geometry" />
        </mxCell>
        <mxCell id="HXhFRCqjD4kQxeXYWOiK-20" style="edgeStyle=none;rounded=0;orthogonalLoop=1;jettySize=auto;html=1;exitX=0.874;exitY=-0.056;exitDx=0;exitDy=0;entryX=0.5;entryY=0;entryDx=0;entryDy=0;exitPerimeter=0;" parent="1" source="HXhFRCqjD4kQxeXYWOiK-6" target="HXhFRCqjD4kQxeXYWOiK-19" edge="1">
          <mxGeometry relative="1" as="geometry" />
        </mxCell>
        <mxCell id="HXhFRCqjD4kQxeXYWOiK-22" style="edgeStyle=none;rounded=0;orthogonalLoop=1;jettySize=auto;html=1;exitX=0.5;exitY=0;exitDx=0;exitDy=0;entryX=1;entryY=0;entryDx=0;entryDy=0;" parent="1" source="HXhFRCqjD4kQxeXYWOiK-6" target="HXhFRCqjD4kQxeXYWOiK-21" edge="1">
          <mxGeometry relative="1" as="geometry" />
        </mxCell>
        <mxCell id="HXhFRCqjD4kQxeXYWOiK-6" value="Health Care Workers" style="rounded=0;whiteSpace=wrap;html=1;" parent="1" vertex="1">
          <mxGeometry x="-290" y="-132.5" width="90" height="40" as="geometry" />
        </mxCell>
        <mxCell id="HXhFRCqjD4kQxeXYWOiK-7" value="&lt;u&gt;Name&lt;/u&gt;" style="ellipse;whiteSpace=wrap;html=1;" parent="1" vertex="1">
          <mxGeometry x="-410" y="630" width="120" height="80" as="geometry" />
        </mxCell>
        <mxCell id="HXhFRCqjD4kQxeXYWOiK-8" value="Address of the Head Offices" style="ellipse;whiteSpace=wrap;html=1;" parent="1" vertex="1">
          <mxGeometry x="-610" y="750" width="120" height="80" as="geometry" />
        </mxCell>
        <mxCell id="HXhFRCqjD4kQxeXYWOiK-9" value="" style="endArrow=none;html=1;rounded=0;exitX=0;exitY=0;exitDx=0;exitDy=0;" parent="1" source="HXhFRCqjD4kQxeXYWOiK-7" edge="1">
          <mxGeometry width="50" height="50" relative="1" as="geometry">
            <mxPoint x="-630" y="420" as="sourcePoint" />
            <mxPoint x="-520" y="650" as="targetPoint" />
          </mxGeometry>
        </mxCell>
        <mxCell id="HXhFRCqjD4kQxeXYWOiK-10" value="" style="endArrow=none;html=1;rounded=0;entryX=0.5;entryY=1;entryDx=0;entryDy=0;exitX=0.5;exitY=0;exitDx=0;exitDy=0;" parent="1" source="HXhFRCqjD4kQxeXYWOiK-8" target="HXhFRCqjD4kQxeXYWOiK-1" edge="1">
          <mxGeometry width="50" height="50" relative="1" as="geometry">
            <mxPoint x="-630" y="420" as="sourcePoint" />
            <mxPoint x="-580" y="370" as="targetPoint" />
          </mxGeometry>
        </mxCell>
        <mxCell id="HXhFRCqjD4kQxeXYWOiK-11" value="&lt;u&gt;Lot ID&lt;/u&gt;" style="ellipse;whiteSpace=wrap;html=1;" parent="1" vertex="1">
          <mxGeometry x="-710" y="180" width="120" height="80" as="geometry" />
        </mxCell>
        <mxCell id="HXhFRCqjD4kQxeXYWOiK-13" value="Six Letters and Digits" style="ellipse;whiteSpace=wrap;html=1;" parent="1" vertex="1">
          <mxGeometry x="-860" y="100" width="120" height="80" as="geometry" />
        </mxCell>
        <mxCell id="HXhFRCqjD4kQxeXYWOiK-14" value="" style="endArrow=none;html=1;rounded=0;entryX=0.5;entryY=1;entryDx=0;entryDy=0;" parent="1" source="HXhFRCqjD4kQxeXYWOiK-11" target="HXhFRCqjD4kQxeXYWOiK-13" edge="1">
          <mxGeometry width="50" height="50" relative="1" as="geometry">
            <mxPoint x="400" y="260" as="sourcePoint" />
            <mxPoint x="450" y="210" as="targetPoint" />
          </mxGeometry>
        </mxCell>
        <mxCell id="HXhFRCqjD4kQxeXYWOiK-18" value="Name" style="ellipse;whiteSpace=wrap;html=1;" parent="1" vertex="1">
          <mxGeometry x="-520" y="-290" width="120" height="80" as="geometry" />
        </mxCell>
        <mxCell id="HXhFRCqjD4kQxeXYWOiK-19" value="Credentials" style="ellipse;whiteSpace=wrap;html=1;" parent="1" vertex="1">
          <mxGeometry x="-120" y="-310" width="120" height="80" as="geometry" />
        </mxCell>
        <mxCell id="HXhFRCqjD4kQxeXYWOiK-21" value="&lt;u&gt;ID&lt;/u&gt;" style="ellipse;whiteSpace=wrap;html=1;" parent="1" vertex="1">
          <mxGeometry x="-305" y="-327.5" width="120" height="80" as="geometry" />
        </mxCell>
        <mxCell id="HXhFRCqjD4kQxeXYWOiK-23" value="Medical Practices" style="rounded=0;whiteSpace=wrap;html=1;" parent="1" vertex="1">
          <mxGeometry x="370" y="-415" width="115" height="50" as="geometry" />
        </mxCell>
        <mxCell id="HXhFRCqjD4kQxeXYWOiK-24" value="Name" style="ellipse;whiteSpace=wrap;html=1;" parent="1" vertex="1">
          <mxGeometry x="550" y="-495" width="120" height="80" as="geometry" />
        </mxCell>
        <mxCell id="HXhFRCqjD4kQxeXYWOiK-25" value="&lt;u&gt;Phone Number&lt;/u&gt;" style="ellipse;whiteSpace=wrap;html=1;strokeColor=default;fillColor=none;" parent="1" vertex="1">
          <mxGeometry x="587.5" y="-400" width="120" height="80" as="geometry" />
        </mxCell>
        <mxCell id="HXhFRCqjD4kQxeXYWOiK-28" value="Production Date" style="ellipse;whiteSpace=wrap;html=1;" parent="1" vertex="1">
          <mxGeometry x="-650" y="-10" width="120" height="80" as="geometry" />
        </mxCell>
        <mxCell id="HXhFRCqjD4kQxeXYWOiK-29" value="Expiry Date" style="ellipse;whiteSpace=wrap;html=1;" parent="1" vertex="1">
          <mxGeometry x="-485" width="120" height="80" as="geometry" />
        </mxCell>
        <mxCell id="HXhFRCqjD4kQxeXYWOiK-32" value="Number of Doses" style="ellipse;whiteSpace=wrap;html=1;" parent="1" vertex="1">
          <mxGeometry x="-340" y="30" width="120" height="80" as="geometry" />
        </mxCell>
        <mxCell id="HXhFRCqjD4kQxeXYWOiK-33" value="Each Lot" style="ellipse;whiteSpace=wrap;html=1;" parent="1" vertex="1">
          <mxGeometry x="-570" y="280" width="120" height="80" as="geometry" />
        </mxCell>
        <mxCell id="HXhFRCqjD4kQxeXYWOiK-36" value="&lt;u&gt;OHIP Number&lt;/u&gt;" style="ellipse;whiteSpace=wrap;html=1;" parent="1" vertex="1">
          <mxGeometry x="120" y="675" width="120" height="80" as="geometry" />
        </mxCell>
        <mxCell id="HXhFRCqjD4kQxeXYWOiK-38" value="Name" style="ellipse;whiteSpace=wrap;html=1;" parent="1" vertex="1">
          <mxGeometry x="180" y="585" width="110" height="70" as="geometry" />
        </mxCell>
        <mxCell id="HXhFRCqjD4kQxeXYWOiK-40" value="Date of Birth" style="ellipse;whiteSpace=wrap;html=1;" parent="1" vertex="1">
          <mxGeometry x="110" y="805" width="120" height="80" as="geometry" />
        </mxCell>
        <mxCell id="HXhFRCqjD4kQxeXYWOiK-42" value="Spouse" style="rounded=0;whiteSpace=wrap;html=1;" parent="1" vertex="1">
          <mxGeometry x="410" y="980" width="120" height="60" as="geometry" />
        </mxCell>
        <mxCell id="HXhFRCqjD4kQxeXYWOiK-43" value="Phone Number" style="ellipse;whiteSpace=wrap;html=1;" parent="1" vertex="1">
          <mxGeometry x="310" y="1110" width="120" height="80" as="geometry" />
        </mxCell>
        <mxCell id="HXhFRCqjD4kQxeXYWOiK-44" value="Name" style="ellipse;whiteSpace=wrap;html=1;" parent="1" vertex="1">
          <mxGeometry x="130" y="1040" width="120" height="80" as="geometry" />
        </mxCell>
        <mxCell id="HXhFRCqjD4kQxeXYWOiK-45" value="&lt;u&gt;OHIP Number&lt;/u&gt;" style="ellipse;whiteSpace=wrap;html=1;" parent="1" vertex="1">
          <mxGeometry x="590" y="1110" width="120" height="80" as="geometry" />
        </mxCell>
        <mxCell id="HXhFRCqjD4kQxeXYWOiK-51" value="&lt;u&gt;Nanme&lt;/u&gt;" style="ellipse;whiteSpace=wrap;html=1;" parent="1" vertex="1">
          <mxGeometry x="790" y="260" width="120" height="80" as="geometry" />
        </mxCell>
        <mxCell id="HXhFRCqjD4kQxeXYWOiK-52" value="Address" style="ellipse;whiteSpace=wrap;html=1;" parent="1" vertex="1">
          <mxGeometry x="752.5" y="400" width="120" height="80" as="geometry" />
        </mxCell>
        <mxCell id="HXhFRCqjD4kQxeXYWOiK-53" value="Date" style="ellipse;whiteSpace=wrap;html=1;" parent="1" vertex="1">
          <mxGeometry x="750" y="120" width="120" height="80" as="geometry" />
        </mxCell>
        <mxCell id="HXhFRCqjD4kQxeXYWOiK-57" value="produce vaccines in" style="rhombus;whiteSpace=wrap;html=1;" parent="1" vertex="1">
          <mxGeometry x="-770" y="605" width="80" height="80" as="geometry" />
        </mxCell>
        <mxCell id="HXhFRCqjD4kQxeXYWOiK-60" value="receive shipments from" style="rhombus;whiteSpace=wrap;html=1;" parent="1" vertex="1">
          <mxGeometry x="90" y="260" width="80" height="100" as="geometry" />
        </mxCell>
        <mxCell id="HXhFRCqjD4kQxeXYWOiK-63" value="receive vaccinations through" style="rhombus;whiteSpace=wrap;html=1;" parent="1" vertex="1">
          <mxGeometry x="510" y="700" width="80" height="80" as="geometry" />
        </mxCell>
        <mxCell id="HXhFRCqjD4kQxeXYWOiK-66" style="edgeStyle=none;rounded=0;orthogonalLoop=1;jettySize=auto;html=1;exitX=0.5;exitY=0;exitDx=0;exitDy=0;" parent="1" source="HXhFRCqjD4kQxeXYWOiK-18" target="HXhFRCqjD4kQxeXYWOiK-18" edge="1">
          <mxGeometry relative="1" as="geometry" />
        </mxCell>
        <mxCell id="HXhFRCqjD4kQxeXYWOiK-67" value="administer" style="rhombus;whiteSpace=wrap;html=1;" parent="1" vertex="1">
          <mxGeometry x="-190" y="50" width="80" height="80" as="geometry" />
        </mxCell>
        <mxCell id="HXhFRCqjD4kQxeXYWOiK-72" value="&lt;p class=&quot;MsoNormal&quot;&gt;&lt;span style=&quot;font-family: &amp;#34;times new roman&amp;#34; ; color: rgb(165 , 165 , 165) ; letter-spacing: 0.1pt ; font-size: 16pt ; background: rgb(255 , 255 , 255)&quot;&gt;Johnson &amp;amp; Johnson&lt;/span&gt;&lt;/p&gt;" style="ellipse;whiteSpace=wrap;html=1;strokeColor=default;fillColor=none;" parent="1" vertex="1">
          <mxGeometry x="-30" y="610" width="120" height="80" as="geometry" />
        </mxCell>
        <mxCell id="HXhFRCqjD4kQxeXYWOiK-73" value="&lt;p class=&quot;MsoNormal&quot;&gt;&lt;span style=&quot;font-family: &amp;#34;times new roman&amp;#34; ; color: rgb(165 , 165 , 165) ; letter-spacing: 0.1pt ; font-size: 16pt ; background: rgb(255 , 255 , 255)&quot;&gt;Astrazeneca&lt;/span&gt;&lt;/p&gt;" style="ellipse;whiteSpace=wrap;html=1;strokeColor=default;fillColor=none;" parent="1" vertex="1">
          <mxGeometry x="-450" y="970" width="120" height="80" as="geometry" />
        </mxCell>
        <mxCell id="0wEwz3gsbH0lIXhT5vUy-10" style="edgeStyle=none;rounded=0;orthogonalLoop=1;jettySize=auto;html=1;entryX=1;entryY=1;entryDx=0;entryDy=0;exitX=0;exitY=0.5;exitDx=0;exitDy=0;" edge="1" parent="1" source="0wEwz3gsbH0lIXhT5vUy-16" target="HXhFRCqjD4kQxeXYWOiK-7">
          <mxGeometry relative="1" as="geometry">
            <mxPoint x="-310" y="750" as="sourcePoint" />
          </mxGeometry>
        </mxCell>
        <mxCell id="HXhFRCqjD4kQxeXYWOiK-74" value="&lt;p class=&quot;MsoNormal&quot;&gt;&lt;span style=&quot;font-family: &amp;#34;times new roman&amp;#34; ; color: rgb(165 , 165 , 165) ; letter-spacing: 0.1pt ; font-size: 16pt ; background: rgb(255 , 255 , 255)&quot;&gt;Moderna&lt;/span&gt;&lt;/p&gt;" style="ellipse;whiteSpace=wrap;html=1;strokeColor=default;fillColor=none;" parent="1" vertex="1">
          <mxGeometry x="-120" y="765" width="120" height="80" as="geometry" />
        </mxCell>
        <mxCell id="HXhFRCqjD4kQxeXYWOiK-75" value="&lt;p class=&quot;MsoNormal&quot;&gt;&lt;span style=&quot;font-family: &amp;#34;times new roman&amp;#34; ; color: rgb(165 , 165 , 165) ; letter-spacing: 0.1pt ; font-size: 16pt ; background: rgb(255 , 255 , 255)&quot;&gt;Pfizer&lt;/span&gt;&lt;/p&gt;" style="ellipse;whiteSpace=wrap;html=1;strokeColor=default;fillColor=none;" parent="1" vertex="1">
          <mxGeometry x="-310" y="890" width="120" height="80" as="geometry" />
        </mxCell>
        <mxCell id="HXhFRCqjD4kQxeXYWOiK-80" style="edgeStyle=none;rounded=0;orthogonalLoop=1;jettySize=auto;html=1;exitX=1;exitY=1;exitDx=0;exitDy=0;" parent="1" source="HXhFRCqjD4kQxeXYWOiK-75" target="HXhFRCqjD4kQxeXYWOiK-75" edge="1">
          <mxGeometry relative="1" as="geometry" />
        </mxCell>
        <mxCell id="HXhFRCqjD4kQxeXYWOiK-83" style="edgeStyle=none;rounded=0;orthogonalLoop=1;jettySize=auto;html=1;exitX=0.5;exitY=1;exitDx=0;exitDy=0;" parent="1" source="HXhFRCqjD4kQxeXYWOiK-4" target="HXhFRCqjD4kQxeXYWOiK-4" edge="1">
          <mxGeometry relative="1" as="geometry" />
        </mxCell>
        <mxCell id="HXhFRCqjD4kQxeXYWOiK-84" value="has" style="rhombus;whiteSpace=wrap;html=1;strokeColor=default;fillColor=none;" parent="1" vertex="1">
          <mxGeometry x="370" y="835" width="80" height="80" as="geometry" />
        </mxCell>
        <mxCell id="HXhFRCqjD4kQxeXYWOiK-88" value="Time" style="ellipse;whiteSpace=wrap;html=1;strokeColor=default;fillColor=none;" parent="1" vertex="1">
          <mxGeometry x="1010" y="1125" width="120" height="80" as="geometry" />
        </mxCell>
        <mxCell id="HXhFRCqjD4kQxeXYWOiK-89" value="Date" style="ellipse;whiteSpace=wrap;html=1;strokeColor=default;fillColor=none;" parent="1" vertex="1">
          <mxGeometry x="770" y="1110" width="120" height="80" as="geometry" />
        </mxCell>
        <mxCell id="HXhFRCqjD4kQxeXYWOiK-93" value="Appointments" style="rounded=0;whiteSpace=wrap;html=1;strokeColor=default;fillColor=none;" parent="1" vertex="1">
          <mxGeometry x="805" y="870" width="120" height="80" as="geometry" />
        </mxCell>
        <mxCell id="HXhFRCqjD4kQxeXYWOiK-94" value="are made at" style="rhombus;whiteSpace=wrap;html=1;strokeColor=default;fillColor=none;" parent="1" vertex="1">
          <mxGeometry x="870" y="640" width="80" height="80" as="geometry" />
        </mxCell>
        <mxCell id="HXhFRCqjD4kQxeXYWOiK-97" style="edgeStyle=none;rounded=0;orthogonalLoop=1;jettySize=auto;html=1;exitX=0.5;exitY=0;exitDx=0;exitDy=0;" parent="1" source="HXhFRCqjD4kQxeXYWOiK-63" target="HXhFRCqjD4kQxeXYWOiK-63" edge="1">
          <mxGeometry relative="1" as="geometry" />
        </mxCell>
        <mxCell id="HXhFRCqjD4kQxeXYWOiK-98" value="Lot Id" style="ellipse;whiteSpace=wrap;html=1;strokeColor=default;fillColor=none;" parent="1" vertex="1">
          <mxGeometry x="540" y="530" width="120" height="80" as="geometry" />
        </mxCell>
        <mxCell id="HXhFRCqjD4kQxeXYWOiK-99" value="Date" style="ellipse;whiteSpace=wrap;html=1;strokeColor=default;fillColor=none;" parent="1" vertex="1">
          <mxGeometry x="370" y="545" width="120" height="80" as="geometry" />
        </mxCell>
        <mxCell id="HXhFRCqjD4kQxeXYWOiK-106" value="are staffed by" style="rhombus;whiteSpace=wrap;html=1;strokeColor=default;fillColor=none;" parent="1" vertex="1">
          <mxGeometry x="30" y="70" width="80" height="80" as="geometry" />
        </mxCell>
        <mxCell id="HXhFRCqjD4kQxeXYWOiK-107" style="edgeStyle=none;rounded=0;orthogonalLoop=1;jettySize=auto;html=1;exitX=0;exitY=1;exitDx=0;exitDy=0;" parent="1" source="HXhFRCqjD4kQxeXYWOiK-106" target="HXhFRCqjD4kQxeXYWOiK-106" edge="1">
          <mxGeometry relative="1" as="geometry" />
        </mxCell>
        <mxCell id="HXhFRCqjD4kQxeXYWOiK-116" value="Nurses" style="rounded=0;whiteSpace=wrap;html=1;strokeColor=default;fillColor=none;" parent="1" vertex="1">
          <mxGeometry x="80" y="-70" width="120" height="60" as="geometry" />
        </mxCell>
        <mxCell id="HXhFRCqjD4kQxeXYWOiK-117" value="Doctors" style="rounded=0;whiteSpace=wrap;html=1;strokeColor=default;fillColor=none;" parent="1" vertex="1">
          <mxGeometry x="80" y="-220" width="120" height="60" as="geometry" />
        </mxCell>
        <mxCell id="HXhFRCqjD4kQxeXYWOiK-131" value="Implement" style="rhombus;whiteSpace=wrap;html=1;strokeColor=default;fillColor=none;" parent="1" vertex="1">
          <mxGeometry x="240" y="-340" width="80" height="80" as="geometry" />
        </mxCell>
        <mxCell id="0wEwz3gsbH0lIXhT5vUy-5" style="edgeStyle=none;rounded=0;orthogonalLoop=1;jettySize=auto;html=1;exitX=0.5;exitY=1;exitDx=0;exitDy=0;entryX=1;entryY=0.5;entryDx=0;entryDy=0;" edge="1" parent="1" source="0wEwz3gsbH0lIXhT5vUy-3" target="HXhFRCqjD4kQxeXYWOiK-6">
          <mxGeometry relative="1" as="geometry" />
        </mxCell>
        <mxCell id="0wEwz3gsbH0lIXhT5vUy-3" value="" style="shape=partialRectangle;whiteSpace=wrap;html=1;bottom=1;right=1;left=1;top=0;fillColor=none;routingCenterX=-0.5;direction=south;" vertex="1" parent="1">
          <mxGeometry x="10" y="-190" width="70" height="155" as="geometry" />
        </mxCell>
        <mxCell id="0wEwz3gsbH0lIXhT5vUy-6" value="&lt;b&gt;Total&lt;/b&gt;" style="text;html=1;align=center;verticalAlign=middle;resizable=0;points=[];autosize=1;strokeColor=none;fillColor=none;" vertex="1" parent="1">
          <mxGeometry x="-110" y="-140" width="40" height="20" as="geometry" />
        </mxCell>
        <mxCell id="HXhFRCqjD4kQxeXYWOiK-125" value="are associated with" style="rhombus;whiteSpace=wrap;html=1;strokeColor=default;fillColor=none;" parent="1" vertex="1">
          <mxGeometry x="340" y="50" width="80" height="80" as="geometry" />
        </mxCell>
        <mxCell id="0wEwz3gsbH0lIXhT5vUy-16" value="" style="shape=partialRectangle;whiteSpace=wrap;html=1;right=0;top=0;bottom=0;fillColor=none;routingCenterX=-0.5;rotation=45;" vertex="1" parent="1">
          <mxGeometry x="-322.5" y="600" width="165" height="410" as="geometry" />
        </mxCell>
        <mxCell id="0wEwz3gsbH0lIXhT5vUy-17" value="" style="endArrow=none;html=1;rounded=0;entryX=0;entryY=0;entryDx=0;entryDy=0;exitX=0;exitY=0.5;exitDx=0;exitDy=0;" edge="1" parent="1" source="HXhFRCqjD4kQxeXYWOiK-72" target="0wEwz3gsbH0lIXhT5vUy-16">
          <mxGeometry width="50" height="50" relative="1" as="geometry">
            <mxPoint x="-720" y="790" as="sourcePoint" />
            <mxPoint x="-670" y="740" as="targetPoint" />
          </mxGeometry>
        </mxCell>
        <mxCell id="0wEwz3gsbH0lIXhT5vUy-18" value="" style="endArrow=none;html=1;rounded=0;entryX=0;entryY=0.25;entryDx=0;entryDy=0;exitX=0.5;exitY=0;exitDx=0;exitDy=0;" edge="1" parent="1" source="HXhFRCqjD4kQxeXYWOiK-74" target="0wEwz3gsbH0lIXhT5vUy-16">
          <mxGeometry width="50" height="50" relative="1" as="geometry">
            <mxPoint x="-720" y="790" as="sourcePoint" />
            <mxPoint x="-670" y="740" as="targetPoint" />
          </mxGeometry>
        </mxCell>
        <mxCell id="0wEwz3gsbH0lIXhT5vUy-19" value="" style="endArrow=none;html=1;rounded=0;entryX=0;entryY=0.75;entryDx=0;entryDy=0;exitX=0.5;exitY=0;exitDx=0;exitDy=0;" edge="1" parent="1" source="HXhFRCqjD4kQxeXYWOiK-75" target="0wEwz3gsbH0lIXhT5vUy-16">
          <mxGeometry width="50" height="50" relative="1" as="geometry">
            <mxPoint x="-290" y="1070" as="sourcePoint" />
            <mxPoint x="-240" y="1020" as="targetPoint" />
          </mxGeometry>
        </mxCell>
        <mxCell id="0wEwz3gsbH0lIXhT5vUy-20" value="" style="endArrow=none;html=1;rounded=0;entryX=0;entryY=1;entryDx=0;entryDy=0;exitX=0.5;exitY=0;exitDx=0;exitDy=0;" edge="1" parent="1" source="HXhFRCqjD4kQxeXYWOiK-73" target="0wEwz3gsbH0lIXhT5vUy-16">
          <mxGeometry width="50" height="50" relative="1" as="geometry">
            <mxPoint x="-720" y="790" as="sourcePoint" />
            <mxPoint x="-670" y="740" as="targetPoint" />
          </mxGeometry>
        </mxCell>
        <mxCell id="0wEwz3gsbH0lIXhT5vUy-21" value="" style="endArrow=none;html=1;rounded=0;entryX=1;entryY=1;entryDx=0;entryDy=0;exitX=0;exitY=0.25;exitDx=0;exitDy=0;" edge="1" parent="1" source="HXhFRCqjD4kQxeXYWOiK-6" target="HXhFRCqjD4kQxeXYWOiK-18">
          <mxGeometry width="50" height="50" relative="1" as="geometry">
            <mxPoint x="10" y="20" as="sourcePoint" />
            <mxPoint x="60" y="-30" as="targetPoint" />
          </mxGeometry>
        </mxCell>
        <mxCell id="0wEwz3gsbH0lIXhT5vUy-22" value="" style="endArrow=none;html=1;rounded=0;entryX=1;entryY=1;entryDx=0;entryDy=0;exitX=0;exitY=0;exitDx=0;exitDy=0;" edge="1" parent="1" source="HXhFRCqjD4kQxeXYWOiK-125" target="HXhFRCqjD4kQxeXYWOiK-116">
          <mxGeometry width="50" height="50" relative="1" as="geometry">
            <mxPoint x="320" y="180" as="sourcePoint" />
            <mxPoint x="370" y="130" as="targetPoint" />
          </mxGeometry>
        </mxCell>
        <mxCell id="0wEwz3gsbH0lIXhT5vUy-23" value="" style="endArrow=none;html=1;rounded=0;entryX=1;entryY=1;entryDx=0;entryDy=0;exitX=0.5;exitY=0;exitDx=0;exitDy=0;" edge="1" parent="1" source="HXhFRCqjD4kQxeXYWOiK-125" target="HXhFRCqjD4kQxeXYWOiK-117">
          <mxGeometry width="50" height="50" relative="1" as="geometry">
            <mxPoint x="320" y="180" as="sourcePoint" />
            <mxPoint x="370" y="130" as="targetPoint" />
          </mxGeometry>
        </mxCell>
        <mxCell id="0wEwz3gsbH0lIXhT5vUy-24" value="" style="endArrow=none;html=1;rounded=0;entryX=1;entryY=1;entryDx=0;entryDy=0;exitX=0.5;exitY=0;exitDx=0;exitDy=0;" edge="1" parent="1" source="HXhFRCqjD4kQxeXYWOiK-3" target="HXhFRCqjD4kQxeXYWOiK-125">
          <mxGeometry width="50" height="50" relative="1" as="geometry">
            <mxPoint x="320" y="180" as="sourcePoint" />
            <mxPoint x="370" y="130" as="targetPoint" />
          </mxGeometry>
        </mxCell>
        <mxCell id="0wEwz3gsbH0lIXhT5vUy-25" value="" style="endArrow=none;html=1;rounded=0;entryX=0;entryY=0.5;entryDx=0;entryDy=0;exitX=1;exitY=0.5;exitDx=0;exitDy=0;" edge="1" parent="1" source="HXhFRCqjD4kQxeXYWOiK-57" target="HXhFRCqjD4kQxeXYWOiK-1">
          <mxGeometry width="50" height="50" relative="1" as="geometry">
            <mxPoint x="-870" y="650" as="sourcePoint" />
            <mxPoint x="-820" y="600" as="targetPoint" />
          </mxGeometry>
        </mxCell>
        <mxCell id="0wEwz3gsbH0lIXhT5vUy-26" value="" style="endArrow=none;html=1;rounded=0;entryX=0.5;entryY=0;entryDx=0;entryDy=0;exitX=0.75;exitY=1;exitDx=0;exitDy=0;" edge="1" parent="1" source="HXhFRCqjD4kQxeXYWOiK-93">
          <mxGeometry width="50" height="50" relative="1" as="geometry">
            <mxPoint x="920" y="720" as="sourcePoint" />
            <mxPoint x="1040" y="1130" as="targetPoint" />
          </mxGeometry>
        </mxCell>
        <mxCell id="0wEwz3gsbH0lIXhT5vUy-27" value="" style="endArrow=none;html=1;rounded=0;entryX=0.25;entryY=1;entryDx=0;entryDy=0;exitX=0.5;exitY=0;exitDx=0;exitDy=0;" edge="1" parent="1" source="HXhFRCqjD4kQxeXYWOiK-89" target="HXhFRCqjD4kQxeXYWOiK-93">
          <mxGeometry width="50" height="50" relative="1" as="geometry">
            <mxPoint x="920" y="720" as="sourcePoint" />
            <mxPoint x="970" y="670" as="targetPoint" />
          </mxGeometry>
        </mxCell>
        <mxCell id="0wEwz3gsbH0lIXhT5vUy-28" value="" style="endArrow=none;html=1;rounded=0;entryX=1;entryY=1;entryDx=0;entryDy=0;exitX=0;exitY=0;exitDx=0;exitDy=0;" edge="1" parent="1" source="HXhFRCqjD4kQxeXYWOiK-45" target="HXhFRCqjD4kQxeXYWOiK-42">
          <mxGeometry width="50" height="50" relative="1" as="geometry">
            <mxPoint x="920" y="720" as="sourcePoint" />
            <mxPoint x="970" y="670" as="targetPoint" />
          </mxGeometry>
        </mxCell>
        <mxCell id="0wEwz3gsbH0lIXhT5vUy-29" value="" style="endArrow=none;html=1;rounded=0;entryX=0;entryY=0.5;entryDx=0;entryDy=0;exitX=1;exitY=0;exitDx=0;exitDy=0;" edge="1" parent="1" source="HXhFRCqjD4kQxeXYWOiK-44" target="HXhFRCqjD4kQxeXYWOiK-42">
          <mxGeometry width="50" height="50" relative="1" as="geometry">
            <mxPoint x="920" y="720" as="sourcePoint" />
            <mxPoint x="970" y="670" as="targetPoint" />
          </mxGeometry>
        </mxCell>
        <mxCell id="0wEwz3gsbH0lIXhT5vUy-30" value="" style="endArrow=none;html=1;rounded=0;entryX=0.25;entryY=1;entryDx=0;entryDy=0;exitX=0.5;exitY=0;exitDx=0;exitDy=0;" edge="1" parent="1" source="HXhFRCqjD4kQxeXYWOiK-43" target="HXhFRCqjD4kQxeXYWOiK-42">
          <mxGeometry width="50" height="50" relative="1" as="geometry">
            <mxPoint x="920" y="720" as="sourcePoint" />
            <mxPoint x="970" y="670" as="targetPoint" />
          </mxGeometry>
        </mxCell>
        <mxCell id="0wEwz3gsbH0lIXhT5vUy-31" value="" style="endArrow=none;html=1;rounded=0;entryX=1;entryY=1;entryDx=0;entryDy=0;exitX=0.5;exitY=0;exitDx=0;exitDy=0;" edge="1" parent="1" source="HXhFRCqjD4kQxeXYWOiK-42" target="HXhFRCqjD4kQxeXYWOiK-84">
          <mxGeometry width="50" height="50" relative="1" as="geometry">
            <mxPoint x="920" y="720" as="sourcePoint" />
            <mxPoint x="960" y="680" as="targetPoint" />
          </mxGeometry>
        </mxCell>
        <mxCell id="0wEwz3gsbH0lIXhT5vUy-32" value="" style="endArrow=none;html=1;rounded=0;entryX=0.5;entryY=1;entryDx=0;entryDy=0;exitX=0;exitY=0;exitDx=0;exitDy=0;" edge="1" parent="1" source="HXhFRCqjD4kQxeXYWOiK-84" target="HXhFRCqjD4kQxeXYWOiK-4">
          <mxGeometry width="50" height="50" relative="1" as="geometry">
            <mxPoint x="940" y="745" as="sourcePoint" />
            <mxPoint x="990" y="695" as="targetPoint" />
          </mxGeometry>
        </mxCell>
        <mxCell id="0wEwz3gsbH0lIXhT5vUy-33" value="" style="endArrow=none;html=1;rounded=0;entryX=0.25;entryY=1;entryDx=0;entryDy=0;exitX=1;exitY=0.5;exitDx=0;exitDy=0;" edge="1" parent="1" source="HXhFRCqjD4kQxeXYWOiK-40" target="HXhFRCqjD4kQxeXYWOiK-4">
          <mxGeometry width="50" height="50" relative="1" as="geometry">
            <mxPoint x="940" y="745" as="sourcePoint" />
            <mxPoint x="990" y="695" as="targetPoint" />
          </mxGeometry>
        </mxCell>
        <mxCell id="0wEwz3gsbH0lIXhT5vUy-34" value="" style="endArrow=none;html=1;rounded=0;exitX=0;exitY=0.5;exitDx=0;exitDy=0;" edge="1" parent="1" source="HXhFRCqjD4kQxeXYWOiK-4">
          <mxGeometry width="50" height="50" relative="1" as="geometry">
            <mxPoint x="940" y="745" as="sourcePoint" />
            <mxPoint x="240" y="715" as="targetPoint" />
          </mxGeometry>
        </mxCell>
        <mxCell id="0wEwz3gsbH0lIXhT5vUy-35" value="" style="endArrow=none;html=1;rounded=0;entryX=1;entryY=1;entryDx=0;entryDy=0;exitX=0.5;exitY=0;exitDx=0;exitDy=0;" edge="1" parent="1" source="HXhFRCqjD4kQxeXYWOiK-4" target="HXhFRCqjD4kQxeXYWOiK-38">
          <mxGeometry width="50" height="50" relative="1" as="geometry">
            <mxPoint x="940" y="745" as="sourcePoint" />
            <mxPoint x="990" y="695" as="targetPoint" />
          </mxGeometry>
        </mxCell>
        <mxCell id="0wEwz3gsbH0lIXhT5vUy-36" value="" style="endArrow=none;html=1;rounded=0;entryX=0.5;entryY=1;entryDx=0;entryDy=0;" edge="1" parent="1" source="HXhFRCqjD4kQxeXYWOiK-63" target="HXhFRCqjD4kQxeXYWOiK-99">
          <mxGeometry width="50" height="50" relative="1" as="geometry">
            <mxPoint x="940" y="745" as="sourcePoint" />
            <mxPoint x="450" y="650" as="targetPoint" />
          </mxGeometry>
        </mxCell>
        <mxCell id="0wEwz3gsbH0lIXhT5vUy-37" value="" style="endArrow=none;html=1;rounded=0;entryX=0.5;entryY=1;entryDx=0;entryDy=0;exitX=1;exitY=0;exitDx=0;exitDy=0;" edge="1" parent="1" source="HXhFRCqjD4kQxeXYWOiK-63">
          <mxGeometry width="50" height="50" relative="1" as="geometry">
            <mxPoint x="940" y="745" as="sourcePoint" />
            <mxPoint x="580" y="610" as="targetPoint" />
          </mxGeometry>
        </mxCell>
        <mxCell id="0wEwz3gsbH0lIXhT5vUy-38" value="" style="endArrow=none;html=1;rounded=0;entryX=0;entryY=0.5;entryDx=0;entryDy=0;exitX=1;exitY=0.5;exitDx=0;exitDy=0;" edge="1" parent="1" source="HXhFRCqjD4kQxeXYWOiK-4" target="HXhFRCqjD4kQxeXYWOiK-63">
          <mxGeometry width="50" height="50" relative="1" as="geometry">
            <mxPoint x="940" y="745" as="sourcePoint" />
            <mxPoint x="990" y="695" as="targetPoint" />
          </mxGeometry>
        </mxCell>
        <mxCell id="0wEwz3gsbH0lIXhT5vUy-39" value="" style="endArrow=none;html=1;rounded=0;entryX=0;entryY=0.25;entryDx=0;entryDy=0;exitX=1;exitY=1;exitDx=0;exitDy=0;" edge="1" parent="1" source="HXhFRCqjD4kQxeXYWOiK-63" target="HXhFRCqjD4kQxeXYWOiK-93">
          <mxGeometry width="50" height="50" relative="1" as="geometry">
            <mxPoint x="920" y="720" as="sourcePoint" />
            <mxPoint x="970" y="670" as="targetPoint" />
          </mxGeometry>
        </mxCell>
        <mxCell id="0wEwz3gsbH0lIXhT5vUy-40" value="" style="endArrow=none;html=1;rounded=0;entryX=0;entryY=1;entryDx=0;entryDy=0;exitX=0.75;exitY=0;exitDx=0;exitDy=0;" edge="1" parent="1" source="HXhFRCqjD4kQxeXYWOiK-93" target="HXhFRCqjD4kQxeXYWOiK-94">
          <mxGeometry width="50" height="50" relative="1" as="geometry">
            <mxPoint x="920" y="720" as="sourcePoint" />
            <mxPoint x="970" y="670" as="targetPoint" />
          </mxGeometry>
        </mxCell>
        <mxCell id="0wEwz3gsbH0lIXhT5vUy-41" value="" style="endArrow=none;html=1;rounded=0;entryX=0.25;entryY=1;entryDx=0;entryDy=0;exitX=1;exitY=0;exitDx=0;exitDy=0;" edge="1" parent="1" source="HXhFRCqjD4kQxeXYWOiK-94" target="HXhFRCqjD4kQxeXYWOiK-3">
          <mxGeometry width="50" height="50" relative="1" as="geometry">
            <mxPoint x="160" y="630" as="sourcePoint" />
            <mxPoint x="210" y="580" as="targetPoint" />
          </mxGeometry>
        </mxCell>
        <mxCell id="0wEwz3gsbH0lIXhT5vUy-42" value="" style="endArrow=none;html=1;rounded=0;entryX=0.5;entryY=1;entryDx=0;entryDy=0;exitX=0;exitY=0;exitDx=0;exitDy=0;" edge="1" parent="1" source="HXhFRCqjD4kQxeXYWOiK-57" target="HXhFRCqjD4kQxeXYWOiK-2">
          <mxGeometry width="50" height="50" relative="1" as="geometry">
            <mxPoint x="160" y="630" as="sourcePoint" />
            <mxPoint x="210" y="580" as="targetPoint" />
          </mxGeometry>
        </mxCell>
        <mxCell id="0wEwz3gsbH0lIXhT5vUy-43" value="" style="endArrow=none;html=1;rounded=0;entryX=0;entryY=0.5;entryDx=0;entryDy=0;exitX=1;exitY=0.5;exitDx=0;exitDy=0;" edge="1" parent="1" source="HXhFRCqjD4kQxeXYWOiK-60" target="HXhFRCqjD4kQxeXYWOiK-3">
          <mxGeometry width="50" height="50" relative="1" as="geometry">
            <mxPoint x="160" y="630" as="sourcePoint" />
            <mxPoint x="210" y="580" as="targetPoint" />
          </mxGeometry>
        </mxCell>
        <mxCell id="0wEwz3gsbH0lIXhT5vUy-44" value="" style="endArrow=none;html=1;rounded=0;exitX=1;exitY=0.5;exitDx=0;exitDy=0;" edge="1" parent="1" source="HXhFRCqjD4kQxeXYWOiK-2">
          <mxGeometry width="50" height="50" relative="1" as="geometry">
            <mxPoint x="40" y="360" as="sourcePoint" />
            <mxPoint x="90" y="310" as="targetPoint" />
          </mxGeometry>
        </mxCell>
        <mxCell id="0wEwz3gsbH0lIXhT5vUy-45" value="" style="endArrow=none;html=1;rounded=0;entryX=0;entryY=0.75;entryDx=0;entryDy=0;exitX=1;exitY=0.5;exitDx=0;exitDy=0;" edge="1" parent="1" source="HXhFRCqjD4kQxeXYWOiK-33" target="HXhFRCqjD4kQxeXYWOiK-2">
          <mxGeometry width="50" height="50" relative="1" as="geometry">
            <mxPoint x="160" y="630" as="sourcePoint" />
            <mxPoint x="210" y="580" as="targetPoint" />
          </mxGeometry>
        </mxCell>
        <mxCell id="0wEwz3gsbH0lIXhT5vUy-46" value="" style="endArrow=none;html=1;rounded=0;entryX=0;entryY=1;entryDx=0;entryDy=0;exitX=0.5;exitY=0;exitDx=0;exitDy=0;" edge="1" parent="1" source="HXhFRCqjD4kQxeXYWOiK-2" target="HXhFRCqjD4kQxeXYWOiK-67">
          <mxGeometry width="50" height="50" relative="1" as="geometry">
            <mxPoint x="160" y="630" as="sourcePoint" />
            <mxPoint x="210" y="580" as="targetPoint" />
          </mxGeometry>
        </mxCell>
        <mxCell id="0wEwz3gsbH0lIXhT5vUy-47" value="" style="endArrow=none;html=1;rounded=0;entryX=1;entryY=1;entryDx=0;entryDy=0;exitX=0;exitY=0;exitDx=0;exitDy=0;" edge="1" parent="1" source="HXhFRCqjD4kQxeXYWOiK-33" target="HXhFRCqjD4kQxeXYWOiK-11">
          <mxGeometry width="50" height="50" relative="1" as="geometry">
            <mxPoint x="160" y="630" as="sourcePoint" />
            <mxPoint x="210" y="580" as="targetPoint" />
          </mxGeometry>
        </mxCell>
        <mxCell id="0wEwz3gsbH0lIXhT5vUy-48" value="" style="endArrow=none;html=1;rounded=0;entryX=0.5;entryY=1;entryDx=0;entryDy=0;exitX=0.5;exitY=0;exitDx=0;exitDy=0;" edge="1" parent="1" source="HXhFRCqjD4kQxeXYWOiK-33" target="HXhFRCqjD4kQxeXYWOiK-28">
          <mxGeometry width="50" height="50" relative="1" as="geometry">
            <mxPoint x="160" y="630" as="sourcePoint" />
            <mxPoint x="210" y="580" as="targetPoint" />
          </mxGeometry>
        </mxCell>
        <mxCell id="0wEwz3gsbH0lIXhT5vUy-49" value="" style="endArrow=none;html=1;rounded=0;entryX=0.5;entryY=1;entryDx=0;entryDy=0;" edge="1" parent="1" source="HXhFRCqjD4kQxeXYWOiK-33" target="HXhFRCqjD4kQxeXYWOiK-29">
          <mxGeometry width="50" height="50" relative="1" as="geometry">
            <mxPoint x="160" y="630" as="sourcePoint" />
            <mxPoint x="210" y="580" as="targetPoint" />
          </mxGeometry>
        </mxCell>
        <mxCell id="0wEwz3gsbH0lIXhT5vUy-50" value="" style="endArrow=none;html=1;rounded=0;entryX=0.5;entryY=1;entryDx=0;entryDy=0;exitX=1;exitY=0;exitDx=0;exitDy=0;" edge="1" parent="1" source="HXhFRCqjD4kQxeXYWOiK-33" target="HXhFRCqjD4kQxeXYWOiK-32">
          <mxGeometry width="50" height="50" relative="1" as="geometry">
            <mxPoint x="160" y="630" as="sourcePoint" />
            <mxPoint x="210" y="580" as="targetPoint" />
          </mxGeometry>
        </mxCell>
        <mxCell id="0wEwz3gsbH0lIXhT5vUy-71" value="" style="endArrow=none;html=1;rounded=0;entryX=0;entryY=1;entryDx=0;entryDy=0;exitX=0.75;exitY=0;exitDx=0;exitDy=0;" edge="1" parent="1" source="HXhFRCqjD4kQxeXYWOiK-117" target="HXhFRCqjD4kQxeXYWOiK-131">
          <mxGeometry width="50" height="50" relative="1" as="geometry">
            <mxPoint x="390" y="-10" as="sourcePoint" />
            <mxPoint x="440" y="-60" as="targetPoint" />
          </mxGeometry>
        </mxCell>
        <mxCell id="0wEwz3gsbH0lIXhT5vUy-72" value="" style="endArrow=none;html=1;rounded=0;entryX=1;entryY=1;entryDx=0;entryDy=0;exitX=0;exitY=0.25;exitDx=0;exitDy=0;" edge="1" parent="1" source="HXhFRCqjD4kQxeXYWOiK-3" target="HXhFRCqjD4kQxeXYWOiK-106">
          <mxGeometry width="50" height="50" relative="1" as="geometry">
            <mxPoint x="250" y="630" as="sourcePoint" />
            <mxPoint x="300" y="580" as="targetPoint" />
          </mxGeometry>
        </mxCell>
        <mxCell id="0wEwz3gsbH0lIXhT5vUy-73" value="" style="endArrow=none;html=1;rounded=0;entryX=0;entryY=0.5;entryDx=0;entryDy=0;exitX=1;exitY=0;exitDx=0;exitDy=0;" edge="1" parent="1" source="HXhFRCqjD4kQxeXYWOiK-3" target="HXhFRCqjD4kQxeXYWOiK-53">
          <mxGeometry width="50" height="50" relative="1" as="geometry">
            <mxPoint x="250" y="630" as="sourcePoint" />
            <mxPoint x="300" y="580" as="targetPoint" />
          </mxGeometry>
        </mxCell>
        <mxCell id="0wEwz3gsbH0lIXhT5vUy-74" value="" style="endArrow=none;html=1;rounded=0;entryX=0;entryY=0.5;entryDx=0;entryDy=0;exitX=1;exitY=0.5;exitDx=0;exitDy=0;" edge="1" parent="1" source="HXhFRCqjD4kQxeXYWOiK-3" target="HXhFRCqjD4kQxeXYWOiK-51">
          <mxGeometry width="50" height="50" relative="1" as="geometry">
            <mxPoint x="250" y="630" as="sourcePoint" />
            <mxPoint x="300" y="580" as="targetPoint" />
          </mxGeometry>
        </mxCell>
        <mxCell id="0wEwz3gsbH0lIXhT5vUy-75" value="" style="endArrow=none;html=1;rounded=0;entryX=0;entryY=0;entryDx=0;entryDy=0;exitX=1;exitY=0.75;exitDx=0;exitDy=0;" edge="1" parent="1" source="HXhFRCqjD4kQxeXYWOiK-3" target="HXhFRCqjD4kQxeXYWOiK-52">
          <mxGeometry width="50" height="50" relative="1" as="geometry">
            <mxPoint x="250" y="630" as="sourcePoint" />
            <mxPoint x="300" y="580" as="targetPoint" />
          </mxGeometry>
        </mxCell>
        <mxCell id="0wEwz3gsbH0lIXhT5vUy-77" value="" style="endArrow=none;html=1;rounded=0;entryX=0;entryY=0;entryDx=0;entryDy=0;exitX=0.5;exitY=1;exitDx=0;exitDy=0;" edge="1" parent="1" source="HXhFRCqjD4kQxeXYWOiK-6" target="HXhFRCqjD4kQxeXYWOiK-67">
          <mxGeometry width="50" height="50" relative="1" as="geometry">
            <mxPoint x="250" y="-570" as="sourcePoint" />
            <mxPoint x="300" y="-620" as="targetPoint" />
          </mxGeometry>
        </mxCell>
        <mxCell id="0wEwz3gsbH0lIXhT5vUy-78" value="" style="endArrow=none;html=1;rounded=0;entryX=0;entryY=0;entryDx=0;entryDy=0;exitX=1;exitY=1;exitDx=0;exitDy=0;" edge="1" parent="1" source="HXhFRCqjD4kQxeXYWOiK-6" target="HXhFRCqjD4kQxeXYWOiK-106">
          <mxGeometry width="50" height="50" relative="1" as="geometry">
            <mxPoint x="250" y="-570" as="sourcePoint" />
            <mxPoint x="300" y="-620" as="targetPoint" />
          </mxGeometry>
        </mxCell>
        <mxCell id="0wEwz3gsbH0lIXhT5vUy-79" value="" style="endArrow=none;html=1;rounded=0;entryX=0;entryY=0.5;entryDx=0;entryDy=0;exitX=1;exitY=0.75;exitDx=0;exitDy=0;" edge="1" parent="1" source="HXhFRCqjD4kQxeXYWOiK-23" target="HXhFRCqjD4kQxeXYWOiK-25">
          <mxGeometry width="50" height="50" relative="1" as="geometry">
            <mxPoint x="250" y="-570" as="sourcePoint" />
            <mxPoint x="300" y="-620" as="targetPoint" />
          </mxGeometry>
        </mxCell>
        <mxCell id="0wEwz3gsbH0lIXhT5vUy-80" value="" style="endArrow=none;html=1;rounded=0;entryX=0;entryY=0.5;entryDx=0;entryDy=0;exitX=1;exitY=0.5;exitDx=0;exitDy=0;" edge="1" parent="1" source="HXhFRCqjD4kQxeXYWOiK-23" target="HXhFRCqjD4kQxeXYWOiK-24">
          <mxGeometry width="50" height="50" relative="1" as="geometry">
            <mxPoint x="250" y="-570" as="sourcePoint" />
            <mxPoint x="300" y="-620" as="targetPoint" />
          </mxGeometry>
        </mxCell>
        <mxCell id="0wEwz3gsbH0lIXhT5vUy-81" value="" style="endArrow=none;html=1;rounded=0;entryX=0;entryY=0.25;entryDx=0;entryDy=0;exitX=1;exitY=0;exitDx=0;exitDy=0;" edge="1" parent="1" source="HXhFRCqjD4kQxeXYWOiK-131" target="HXhFRCqjD4kQxeXYWOiK-23">
          <mxGeometry width="50" height="50" relative="1" as="geometry">
            <mxPoint x="250" y="-570" as="sourcePoint" />
            <mxPoint x="300" y="-620" as="targetPoint" />
          </mxGeometry>
        </mxCell>
      </root>
    </mxGraphModel>
  </diagram>
</mxfile>
